<svg width="20" height="20" viewBox="0 0 20 20" fill="none" xmlns="http://www.w3.org/2000/svg">
<path d="M7.78752 2.70844C7.78752 2.29422 8.1233 1.95844 8.53752 1.95844H11.452C11.8662 1.95844 12.202 2.29422 12.202 2.70844C12.202 3.12265 11.8662 3.45844 11.452 3.45844H8.53752C8.1233 3.45844 7.78752 3.12265 7.78752 2.70844Z" fill="currentColor"/>
<path d="M6.37266 2.69651C6.38521 3.11054 6.05975 3.45634 5.64573 3.46889C4.93172 3.49052 4.63429 3.54709 4.42241 3.65606L4.41483 3.65996C4.09327 3.82074 3.82576 4.08911 3.64426 4.43522C3.53599 4.64697 3.47972 4.94479 3.45816 5.65645C3.44561 6.07048 3.09981 6.39594 2.68579 6.38339C2.27176 6.37085 1.9463 6.02504 1.95885 5.61102C1.98039 4.90015 2.03176 4.29085 2.3114 3.74712L2.31368 3.74268C2.62809 3.1412 3.11444 2.63409 3.74027 2.32013C4.28302 2.04225 4.89112 1.99106 5.60029 1.96957C6.01432 1.95703 6.36012 2.28249 6.37266 2.69651Z" fill="currentColor"/>
<path d="M13.6169 2.69651C13.6294 2.28249 13.9752 1.95703 14.3892 1.96957C15.0984 1.99106 15.7065 2.04225 16.2493 2.32013C16.8751 2.63409 17.3614 3.14121 17.6758 3.74269L17.6782 3.74711C17.9578 4.29084 18.0091 4.90015 18.0307 5.61102C18.0432 6.02504 17.7178 6.37085 17.3038 6.38339C16.8897 6.39594 16.5439 6.07048 16.5314 5.65645C16.5098 4.94479 16.4535 4.64697 16.3453 4.43523C16.1638 4.08911 15.8963 3.82069 15.5747 3.65991L15.5671 3.6561C15.3552 3.54713 15.0578 3.49052 14.3438 3.46889C13.9298 3.45634 13.6043 3.11054 13.6169 2.69651Z" fill="currentColor"/>
<path d="M2.7085 7.78745C3.12272 7.78745 3.4585 8.12324 3.4585 8.53745V11.452C3.4585 11.8662 3.12272 12.202 2.7085 12.202C2.29429 12.202 1.9585 11.8662 1.9585 11.452V8.53745C1.9585 8.12324 2.29429 7.78745 2.7085 7.78745Z" fill="currentColor"/>
<path d="M17.281 7.78745C17.6952 7.78745 18.031 8.12324 18.031 8.53745V11.452C18.031 11.8662 17.6952 12.202 17.281 12.202C16.8668 12.202 16.531 11.8662 16.531 11.452V8.53745C16.531 8.12324 16.8668 7.78745 17.281 7.78745Z" fill="currentColor"/>
<path d="M17.3145 13.6168C17.7286 13.6294 18.054 13.9752 18.0415 14.3892C18.0199 15.1001 17.9686 15.7094 17.6889 16.2531L17.6866 16.2575C17.3722 16.859 16.8858 17.3662 16.2599 17.6801C15.7172 17.958 15.1092 18.0091 14.4 18.0306C13.986 18.0432 13.6402 17.7177 13.6277 17.3037C13.6151 16.8897 13.9406 16.5439 14.3546 16.5313C15.0686 16.5097 15.366 16.4531 15.5779 16.3441L15.5855 16.3402C15.9071 16.1795 16.1746 15.9111 16.3561 15.565C16.4643 15.3532 16.5206 15.0554 16.5422 14.3437C16.5547 13.9297 16.9005 13.6043 17.3145 13.6168Z" fill="currentColor"/>
<path d="M2.68579 13.6276C3.09981 13.6151 3.44561 13.9405 3.45816 14.3545C3.47979 15.0685 3.53636 15.366 3.64533 15.5779L3.64923 15.5854C3.81001 15.907 4.07839 16.1745 4.4245 16.356C4.63624 16.4643 4.93406 16.5205 5.64573 16.5421C6.05975 16.5547 6.38521 16.9005 6.37266 17.3145C6.36012 17.7285 6.01432 18.054 5.60029 18.0414C4.88942 18.0199 4.28012 17.9685 3.73639 17.6889L3.73196 17.6866C3.13048 17.3722 2.62336 16.8858 2.3094 16.26C2.03152 15.7172 1.98034 15.1092 1.95885 14.4C1.9463 13.986 2.27176 13.6402 2.68579 13.6276Z" fill="currentColor"/>
<path d="M7.78752 17.281C7.78752 16.8668 8.1233 16.531 8.53752 16.531H11.452C11.8662 16.531 12.202 16.8668 12.202 17.281C12.202 17.6952 11.8662 18.031 11.452 18.031H8.53752C8.1233 18.031 7.78752 17.6952 7.78752 17.281Z" fill="currentColor"/>
</svg>
